<svg width="32" height="32" viewBox="0 0 32 32" fill="none" xmlns="http://www.w3.org/2000/svg">
  <!-- Background circle -->
  <circle cx="16" cy="16" r="15" fill="#3B82F6" stroke="#1E40AF" stroke-width="2"/>
  
  <!-- Letter B for Business -->
  <path d="M10 8 L10 24 L18 24 C20.2091 24 22 22.2091 22 20 C22 18.8954 21.5523 17.8944 20.8284 17.1716 C21.5523 16.4487 22 15.4477 22 14.3431 C22 12.1339 20.2091 10.3431 18 10.3431 L10 8 Z M12 10.3431 L18 10.3431 C19.1046 10.3431 20 11.2385 20 12.3431 C20 13.4477 19.1046 14.3431 18 14.3431 L12 14.3431 L12 10.3431 Z M12 16.3431 L18 16.3431 C19.1046 16.3431 20 17.2385 20 18.3431 C20 19.4477 19.1046 20.3431 18 20.3431 L12 20.3431 L12 16.3431 Z" fill="white"/>
</svg>
